Coordinates
version=1
nRows=17
nColumns=24
inDegrees=yes

Units are S.I. units (second, meters, Newtons, ...)
Angles are in degrees.

endheader
time	pelvis_tilt	pelvis_list	pelvis_rotation	pelvis_tx	pelvis_ty	pelvis_tz	hip_flexion_r	hip_adduction_r	hip_rotation_r	knee_angle_r	ankle_angle_r	subtalar_angle_r	mtp_angle_r	hip_flexion_l	hip_adduction_l	hip_rotation_l	knee_angle_l	ankle_angle_l	subtalar_angle_l	mtp_angle_l	lumbar_extension	lumbar_bending	lumbar_rotation
      0.77500000	     -0.27542819	     -4.30224591	      7.65366131	     -0.44086992	      1.03269172	      0.32621008	     10.24489366	     10.69347188	     -3.83183940	    -12.24427397	      0.77767700	    -12.39928103	      7.16371677	     18.38031182	     -8.43887855	     -2.51948265	    -68.46167871	     -2.01770581	     -0.34203140	      2.77193609	     -4.61983369	      2.11562660	     -1.82562603
      0.77916667	     -0.30015826	     -4.18704521	      7.62684075	     -0.43584501	      1.03345161	      0.32636023	      9.80916679	     10.62496560	     -3.77467963	    -11.98768405	      0.95230957	    -12.20972242	      6.55274185	     18.89979567	     -8.30348191	     -2.48792323	    -68.11007506	     -1.40004245	     -0.80323804	      0.25463416	     -4.64893089	      1.95827231	     -1.66983183
      0.78333333	     -0.32310709	     -4.06958939	      7.62938888	     -0.43081858	      1.03420002	      0.32647040	      9.36198050	     10.55173964	     -3.74854727	    -11.69931245	      1.03780303	    -12.16798633	      6.55314216	     19.40528466	     -8.15101016	     -2.41930594	    -67.69074141	     -0.83037401	     -1.20597391	      0.25928615	     -4.66542494	      1.81037811	     -1.62386750
      0.78750000	     -0.32768334	     -3.93798685	      7.60672223	     -0.42584452	      1.03497609	      0.32659985	      8.89780360	     10.46814073	     -3.67809590	    -11.42206514	      1.13638521	    -12.07465282	      6.55097510	     19.86358889	     -7.98366752	     -2.37742674	    -67.19290102	     -0.35190914	     -1.67392440	      0.24987681	     -4.75254279	      1.64325908	     -1.51801873
      0.79166667	     -0.32880832	     -3.80165384	      7.58108461	     -0.42084920	      1.03573548	      0.32672641	      8.42608027	     10.37734619	     -3.63087133	    -11.14040945	      1.25834507	    -11.95748241	      6.54586013	     20.29312783	     -7.81160834	     -2.34380520	    -66.62646994	      0.10365033	     -2.09553274	      0.23113457	     -4.80158432	      1.46542687	     -1.40538429
      0.79583333	     -0.36959176	     -3.67602803	      7.54347593	     -0.41588143	      1.03639495	      0.32686718	      8.01173600	     10.29287448	     -3.57704480	    -10.88311522	      1.35742509	    -11.86348159	      6.54185284	     20.75187469	     -7.64441512	     -2.31365876	    -66.00995078	      0.58216957	     -2.45613605	      0.22127875	     -4.82059035	      1.30815746	     -1.33787907
      0.80000000	     -0.35124894	     -3.51808269	      7.49584689	     -0.41092695	      1.03716101	      0.32699698	      7.52023426	     10.18045979	     -3.50994493	    -10.60786599	      1.49849017	    -11.71438137	      6.53059235	     21.10784702	     -7.44396077	     -2.29738186	    -65.30149278	      0.95825173	     -2.85743958	      0.18873221	     -4.91257860	      1.11238118	     -1.19961466
      0.80416667	     -0.39819623	     -3.38628690	      7.44053037	     -0.40598202	      1.03776496	      0.32714299	      7.11486724	     10.08767231	     -3.44639239	    -10.35376233	      1.59837836	    -11.62232546	      6.52488067	     21.52826122	     -7.26649560	     -2.28413091	    -64.55872205	      1.39872944	     -3.17026893	      0.17750111	     -4.91897147	      0.93439837	     -1.14050086
      0.80833333	     -0.40565265	     -3.23950096	      7.36879904	     -0.40106244	      1.03841262	      0.32729543	      6.66939495	      9.98427745	     -3.36199974	    -10.10896943	      1.72327791	    -11.50929376	      6.51564730	     21.87391204	     -7.07681450	     -2.28604275	    -63.73978311	      1.77270442	     -3.51277234	      0.15682073	     -4.98991738	      0.74458373	     -1.03737499
      0.81250000	     -0.38800697	     -3.06542422	      7.28520166	     -0.39615731	      1.03911539	      0.32743244	      6.19444626	      9.85148361	     -3.26391739	     -9.86955729	      1.88386332	    -11.34549999	      6.49153021	     22.15348407	     -6.85069952	     -2.28905789	    -62.82792543	      2.03692104	     -3.86281755	      0.10482514	     -5.09459407	      0.55401970	     -0.84771953
      0.81666667	     -0.39874608	     -2.91862656	      7.18988181	     -0.39126545	      1.03969044	      0.32760317	      5.76420864	      9.74642012	     -3.16359339	     -9.64624120	      2.02553312	    -11.21892744	      6.46372670	     22.45544694	     -6.66051393	     -2.30519393	    -61.88569036	      2.36240030	     -4.15725663	      0.05305756	     -5.15766142	      0.37126795	     -0.70665676
      0.82083333	     -0.43800624	     -2.77913851	      7.08750061	     -0.38636144	      1.04020199	      0.32777345	      5.36452674	      9.64456870	     -3.05632877	     -9.41647078	      2.13246594	    -11.12452133	      6.44979094	     22.76762575	     -6.47504954	     -2.32658292	    -60.89077263	      2.71459625	     -4.41526421	      0.02864628	     -5.18413721	      0.17901405	     -0.63188308
      0.82500000	     -0.42060687	     -2.59812827	      6.95051316	     -0.38151084	      1.04078971	      0.32796200	      4.92085465	      9.50379651	     -2.91120427	     -9.23957822	      2.28692280	    -11.01584671	      6.42259032	     22.96939862	     -6.24965968	     -2.37142758	    -59.79585507	      2.93631742	     -4.72348171	     -0.02318426	     -5.30688032	     -0.01603513	     -0.45837369
      0.82916667	     -0.40323235	     -2.45991397	      6.82758264	     -0.37663205	      1.04132225	      0.32813892	      4.46372999	      9.40803240	     -2.78169590	     -9.01463079	      2.44238656	    -10.88267679	      6.37554232	     23.16761303	     -6.07224203	     -2.40329094	    -58.66565700	      3.14415140	     -5.01757741	     -0.10480560	     -5.39332233	     -0.17925660	     -0.24121434
      0.83333333	     -0.42544327	     -2.30576202	      6.67078557	     -0.37178357	      1.04176204	      0.32834835	      4.07666675	      9.28885747	     -2.62443844	     -8.85144013	      2.57813970	    -10.79569821	      6.34055827	     23.37570989	     -5.87860187	     -2.46300047	    -57.47413482	      3.38269407	     -5.27144970	     -0.16494746	     -5.46039897	     -0.36661902	     -0.10762230
      0.83750000	     -0.42508664	     -2.15251549	      6.50783859	     -0.36692702	      1.04221753	      0.32856163	      3.65841527	      9.17231944	     -2.45492084	     -8.67197505	      2.72537551	    -10.69948458	      6.30020234	     23.53099248	     -5.68837690	     -2.52714632	    -56.21289614	      3.55480577	     -5.55842918	     -0.23620977	     -5.54274537	     -0.55354478	      0.06809638
      0.84166667	     -0.42310653	     -2.03339269	      6.35118673	     -0.36208131	      1.04258814	      0.32875649	      3.24155100	      9.08976019	     -2.29242007	     -8.48391199	      2.87194792	    -10.57709894	      6.20426714	     23.67921894	     -5.53049334	     -2.57191725	    -54.91853482	      3.69094460	     -5.87903915	     -0.39453715	     -5.62018652	     -0.69373061	      0.35104318
